HIERARCHY
ROOT Hips
{
  OFFSET 5.84602e-005 68.8428 3.50346
  CHANNELS 6 Xposition Yposition Zposition Zrotation Xrotation Yrotation
  JOINT Spine
  {
    OFFSET 0 8.597 -4.6522
    CHANNELS 3 Zrotation Xrotation Yrotation
    JOINT Spine1
    {
      OFFSET 0 7.8454 0.4098
      CHANNELS 3 Zrotation Xrotation Yrotation
      JOINT Spine2
      {
        OFFSET 0 9.7078 -2.1609
        CHANNELS 3 Zrotation Xrotation Yrotation
        JOINT Neck
        {
          OFFSET 0 21.8761 -0.4549
          CHANNELS 3 Zrotation Xrotation Yrotation
          JOINT Head
          {
            OFFSET 0 12.3537 3.3602
            CHANNELS 3 Zrotation Xrotation Yrotation
            End Site
            {
              OFFSET 0.0001 18.9506 0.5657
            }
          }
        }
        JOINT LeftShoulder
        {
          OFFSET 2.2086 21.1115 7.2329
          CHANNELS 3 Zrotation Xrotation Yrotation
          JOINT LeftArm
          {
            OFFSET 13.1193 3.0282 -4.8998
            CHANNELS 3 Zrotation Xrotation Yrotation
            JOINT LeftForeArm
            {
              OFFSET 27.4081 -0.0973053 -0.2375
              CHANNELS 3 Zrotation Xrotation Yrotation
              JOINT LeftHand
              {
                OFFSET 22.8641 0.0662994 -0.1369
                CHANNELS 3 Zrotation Xrotation Yrotation
                JOINT LeftHandIndex1
                {
                  OFFSET 8.8614 0.775009 2.4612
                  CHANNELS 3 Zrotation Xrotation Yrotation
                  JOINT LeftHandIndex2
                  {
                    OFFSET 3.3146 -0.808304 0.5841
                    CHANNELS 3 Zrotation Xrotation Yrotation
                    JOINT LeftHandIndex3
                    {
                      OFFSET 2.2628 -0.552002 0.3989
                      CHANNELS 3 Zrotation Xrotation Yrotation
                      End Site
                      {
                        OFFSET 1.6102 -0.4807 0.2612
                      }
                    }
                  }
                }
                JOINT LeftHandMiddle1
                {
                  OFFSET 8.9937 0.895004 0.2143
                  CHANNELS 3 Zrotation Xrotation Yrotation
                  JOINT LeftHandMiddle2
                  {
                    OFFSET 4.0984 0.0113983 -0.0242
                    CHANNELS 3 Zrotation Xrotation Yrotation
                    JOINT LeftHandMiddle3
                    {
                      OFFSET 2.2716 0.00689697 -0.0138001
                      CHANNELS 3 Zrotation Xrotation Yrotation
                      End Site
                      {
                        OFFSET 2.0404 -0.1441 0.0027
                      }
                    }
                  }
                }
                JOINT LeftHandRing1
                {
                  OFFSET 8.5234 0.597198 -2.0164
                  CHANNELS 3 Zrotation Xrotation Yrotation
                  JOINT LeftHandRing2
                  {
                    OFFSET 3.7188 -0.188293 -0.2328
                    CHANNELS 3 Zrotation Xrotation Yrotation
                    JOINT LeftHandRing3
                    {
                      OFFSET 2.1191 -0.106598 -0.1332
                      CHANNELS 3 Zrotation Xrotation Yrotation
                      End Site
                      {
                        OFFSET 1.8737 -0.2304 -0.0886
                      }
                    }
                  }
                }
                JOINT LeftHandPinky1
                {
                  OFFSET 7.9094 -0.601089 -3.4825
                  CHANNELS 3 Zrotation Xrotation Yrotation
                  JOINT LeftHandPinky2
                  {
                    OFFSET 2.2874 -0.477005 -0.6314
                    CHANNELS 3 Zrotation Xrotation Yrotation
                    JOINT LeftHandPinky3
                    {
                      OFFSET 1.6774 -0.349396 -0.4633
                      CHANNELS 3 Zrotation Xrotation Yrotation
                      End Site
                      {
                        OFFSET 1.4888 -0.4091 -0.3416
                      }
                    }
                  }
                }
                JOINT LeftHandThumb1
                {
                  OFFSET 1.833 -1.3875 1.3896
                  CHANNELS 3 Zrotation Xrotation Yrotation
                  JOINT LeftHandThumb2
                  {
                    OFFSET 3.4129 -1.121 2.5732
                    CHANNELS 3 Zrotation Xrotation Yrotation
                    JOINT LeftHandThumb3
                    {
                      OFFSET 2.2474 -0.804199 1.6192
                      CHANNELS 3 Zrotation Xrotation Yrotation
                      End Site
                      {
                        OFFSET 1.6527 -0.5689 1.1317
                      }
                    }
                  }
                }
              }
            }
          }
        }
        JOINT RightShoulder
        {
          OFFSET -2.2086 21.1115 7.2329
          CHANNELS 3 Zrotation Xrotation Yrotation
          JOINT RightArm
          {
            OFFSET -13.1216 3.0287 -4.9007
            CHANNELS 3 Zrotation Xrotation Yrotation
            JOINT RightForeArm
            {
              OFFSET -27.4081 -0.0973053 -0.2375
              CHANNELS 3 Zrotation Xrotation Yrotation
              JOINT RightHand
              {
                OFFSET -22.8641 0.0664063 -0.1369
                CHANNELS 3 Zrotation Xrotation Yrotation
                JOINT RightHandIndex1
                {
                  OFFSET -8.8614 0.774994 2.4612
                  CHANNELS 3 Zrotation Xrotation Yrotation
                  JOINT RightHandIndex2
                  {
                    OFFSET -3.3146 -0.808304 0.5841
                    CHANNELS 3 Zrotation Xrotation Yrotation
                    JOINT RightHandIndex3
                    {
                      OFFSET -2.2628 -0.552002 0.3989
                      CHANNELS 3 Zrotation Xrotation Yrotation
                      End Site
                      {
                        OFFSET -1.6102 -0.4807 0.2612
                      }
                    }
                  }
                }
                JOINT RightHandMiddle1
                {
                  OFFSET -8.9937 0.894989 0.2143
                  CHANNELS 3 Zrotation Xrotation Yrotation
                  JOINT RightHandMiddle2
                  {
                    OFFSET -4.0984 0.0113983 -0.0242
                    CHANNELS 3 Zrotation Xrotation Yrotation
                    JOINT RightHandMiddle3
                    {
                      OFFSET -2.2716 0.00691223 -0.0138001
                      CHANNELS 3 Zrotation Xrotation Yrotation
                      End Site
                      {
                        OFFSET -2.0404 -0.1441 0.0027
                      }
                    }
                  }
                }
                JOINT RightHandRing1
                {
                  OFFSET -8.5234 0.597198 -2.0164
                  CHANNELS 3 Zrotation Xrotation Yrotation
                  JOINT RightHandRing2
                  {
                    OFFSET -3.7188 -0.188309 -0.2328
                    CHANNELS 3 Zrotation Xrotation Yrotation
                    JOINT RightHandRing3
                    {
                      OFFSET -2.1191 -0.106598 -0.1332
                      CHANNELS 3 Zrotation Xrotation Yrotation
                      End Site
                      {
                        OFFSET -1.8737 -0.2304 -0.0886
                      }
                    }
                  }
                }
                JOINT RightHandPinky1
                {
                  OFFSET -7.9094 -0.601105 -3.4825
                  CHANNELS 3 Zrotation Xrotation Yrotation
                  JOINT RightHandPinky2
                  {
                    OFFSET -2.2874 -0.477005 -0.6314
                    CHANNELS 3 Zrotation Xrotation Yrotation
                    JOINT RightHandPinky3
                    {
                      OFFSET -1.6774 -0.349396 -0.4633
                      CHANNELS 3 Zrotation Xrotation Yrotation
                      End Site
                      {
                        OFFSET -1.4888 -0.4091 -0.3416
                      }
                    }
                  }
                }
                JOINT RightHandThumb1
                {
                  OFFSET -1.833 -1.38751 1.3896
                  CHANNELS 3 Zrotation Xrotation Yrotation
                  JOINT RightHandThumb2
                  {
                    OFFSET -3.41299 -1.12099 2.5732
                    CHANNELS 3 Zrotation Xrotation Yrotation
                    JOINT RightHandThumb3
                    {
                      OFFSET -2.24741 -0.804108 1.6192
                      CHANNELS 3 Zrotation Xrotation Yrotation
                      End Site
                      {
                        OFFSET -1.6527 -0.5689 1.1317
                      }
                    }
                  }
                }
              }
            }
          }
        }
      }
    }
  }
  JOINT RightUpLeg
  {
    OFFSET -9.1966 3.8861 -0.7581
    CHANNELS 3 Zrotation Xrotation Yrotation
    JOINT RightLeg
    {
      OFFSET -0.7359 -41.0265 0
      CHANNELS 3 Zrotation Xrotation Yrotation
      JOINT RightFoot
      {
        OFFSET 0 -40.2855 0
        CHANNELS 3 Zrotation Xrotation Yrotation
        JOINT RightToeBase
        {
          OFFSET 0 -5.6122 11.7359
          CHANNELS 3 Zrotation Xrotation Yrotation
          End Site
          {
            OFFSET 0 0 7.8731
          }
        }
      }
    }
  }
  JOINT LeftUpLeg
  {
    OFFSET 9.1965 3.8864 -0.7581
    CHANNELS 3 Zrotation Xrotation Yrotation
    JOINT LeftLeg
    {
      OFFSET 0.7359 -41.0268 0
      CHANNELS 3 Zrotation Xrotation Yrotation
      JOINT LeftFoot
      {
        OFFSET 0 -40.2855 0
        CHANNELS 3 Zrotation Xrotation Yrotation
        JOINT LeftToeBase
        {
          OFFSET 0 -5.6122 11.7359
          CHANNELS 3 Zrotation Xrotation Yrotation
          End Site
          {
            OFFSET 0 0 7.8731
          }
        }
      }
    }
  }
}
MOTION
Frames:	6
Frame Time:	0.0333333
-18.1722 69.5815 -52.495 0 0 -66.0085 0.769645 -0.695898 1.72294 1.56004 -1.36827 3.45546 1.56003 -1.36828 3.45541 -5.55764 25.4771 16.4506 3.09408 8.712 12.6202 -17.9433 -1.49847 1.78704 -45.3358 -8.33822 -1.44952 -8.56685 41.4534 -26.0611 0.793913 -6.47047 -3.46721 3.18055e-015 1.19271e-015 3.27995e-015 -0 0 4.96962e-016 2.75869e-033 -7.95139e-016 1.98785e-016 3.18055e-015 1.19271e-015 3.27995e-015 -0.0146445 -9.42522e-005 2.33442e-006 3.18055e-015 -1.19271e-015 4.17448e-015 3.18055e-015 1.19271e-015 3.27995e-015 -0.018729 -0.00117409 5.93522e-005 -3.18055e-015 -1.59028e-015 3.27995e-015 3.18055e-015 1.19271e-015 3.27995e-015 -0.0122678 -0.00324957 0.000678223 3.18055e-015 2.38542e-015 -1.98785e-016 3.18055e-015 1.19271e-015 3.27995e-015 -0 0 4.96962e-016 2.75869e-033 -7.95139e-016 1.98785e-016 22.7245 15.8864 7.41397 29.6151 49.5682 8.15782 -4.00839 -9.31929 20.9355 -0.176648 -33.9908 -5.37108 -2.02075e-006 2.38358e-007 1.36309e-006 -1.50943e-006 -1.9337e-007 6.87848e-007 -1.04362e-014 0 1.19271e-015 -2.02075e-006 2.38358e-007 1.36309e-006 0.0149864 -8.7691e-005 -1.55548e-006 2.08724e-015 6.36111e-015 5.96354e-016 -2.02075e-006 2.38358e-007 1.36309e-006 0.0189542 -0.00118471 -6.15516e-005 -6.65929e-015 3.18055e-015 -0 -2.02075e-006 2.38358e-007 1.36309e-006 0.0123227 -0.00326419 -0.000677498 4.77083e-015 3.18055e-015 -0 -2.02075e-006 2.38358e-007 1.36309e-006 -1.50943e-006 -1.9337e-007 6.87848e-007 -1.04362e-014 0 1.19271e-015 -9.6233 3.52413 -13.0566 5.14256 0.027851 -1.0301 -11.5044 5.40155 10.8831 9.7046e-007 -1.37994e-006 -1.02433e-007 6.28382 14.1882 -0.131701 -5.47164 1.5129 0.238099 -14.6691 -2.29897 55.2837 -1.59028e-015 3.18055e-015 -7.95139e-016 
-18.268 69.5482 -52.6252 0 0 -66.0085 0.800169 -0.694121 1.62193 1.61984 -1.36525 3.25374 1.61984 -1.36524 3.25375 -5.55402 25.376 16.4443 3.09778 8.62103 12.631 -17.9433 -1.4985 1.78706 -45.1835 -8.34094 -1.45425 -8.56686 41.4534 -26.0611 0.793929 -6.47045 -3.46723 -3.18055e-015 1.59028e-015 -5.96354e-016 -3.18055e-015 3.97569e-016 -2.98177e-015 -6.36111e-015 -2.38542e-015 1.98785e-016 -3.18055e-015 1.59028e-015 -5.96354e-016 -0.0146097 -8.71577e-005 -6.20341e-007 9.54166e-015 -1.19271e-015 -5.36719e-015 -3.18055e-015 1.59028e-015 -5.96354e-016 -0.0187482 -0.00118262 6.56898e-005 -9.54166e-015 0 5.96354e-016 -3.18055e-015 1.59028e-015 -5.96354e-016 -0.0122939 -0.00325446 0.000685794 -1.59028e-014 7.95139e-016 -2.98177e-015 -3.18055e-015 1.59028e-015 -5.96354e-016 -3.18055e-015 3.97569e-016 -2.98177e-015 -6.36111e-015 -2.38542e-015 1.98785e-016 22.6381 15.8778 7.34916 29.6151 49.5682 8.15781 -4.00837 -9.31928 20.9355 -0.176656 -33.9908 -5.37109 -3.47873e-015 0 9.93923e-016 -6.95746e-016 0 1.78906e-015 -5.96354e-016 0 -1.19271e-015 -3.47873e-015 0 9.93923e-016 0.0149964 -9.16675e-005 -1.81129e-006 7.65321e-015 0 -1.59028e-015 -3.47873e-015 0 9.93923e-016 0.0189821 -0.00119023 -5.61531e-005 -1.98785e-015 6.36111e-015 -2.38542e-015 -3.47873e-015 0 9.93923e-016 0.0122627 -0.00324703 -0.000674678 1.19271e-015 -6.36111e-015 -1.78906e-015 -3.47873e-015 0 9.93923e-016 -6.95746e-016 0 1.78906e-015 -5.96354e-016 0 -1.19271e-015 -9.51779 3.53448 -13.0587 5.14257 0.0482745 -1.0259 -11.5742 5.14273 10.8468 -2.79607e-007 3.48856e-007 -1.65518e-006 6.4024 14.2071 -0.164535 -5.47169 1.52731 0.234338 -14.7548 -2.34566 55.2845 -6.78393e-008 1.73508e-008 4.20352e-007 
-18.3463 69.521 -52.7318 0 0 -66.0085 0.825171 -0.692819 1.53928 1.66884 -1.36315 3.08875 1.66884 -1.36315 3.08873 -5.55058 25.2751 16.438 3.10149 8.53007 12.6417 -17.9433 -1.49844 1.78702 -45.0589 -8.34316 -1.45812 -8.56685 41.4535 -26.0611 0.79392 -6.47047 -3.46722 1.62584e-006 2.30051e-006 9.37958e-007 1.10348e-032 7.95139e-016 -7.95139e-016 1.32442e-006 8.24263e-007 2.09881e-006 1.62584e-006 2.30051e-006 9.37958e-007 -0.0146189 -8.95082e-005 -1.83457e-006 1.62563e-006 2.30039e-006 9.3825e-007 1.62584e-006 2.30051e-006 9.37958e-007 -0.0187578 -0.00117543 5.46597e-005 1.62557e-006 2.30034e-006 9.38319e-007 1.62584e-006 2.30051e-006 9.37958e-007 -0.0122957 -0.00325758 0.000675563 1.6257e-006 2.30035e-006 9.38168e-007 1.62584e-006 2.30051e-006 9.37958e-007 1.10348e-032 7.95139e-016 -7.95139e-016 1.32442e-006 8.24263e-007 2.09881e-006 22.5673 15.8708 7.296 29.6151 49.5682 8.15782 -4.00839 -9.31929 20.9355 -0.176683 -33.9908 -5.3711 -1.50298e-006 -2.82586e-007 6.74985e-007 7.04096e-008 2.29286e-006 3.93347e-007 4.96962e-015 0 -1.98785e-016 -1.50298e-006 -2.82586e-007 6.74985e-007 0.0149572 -9.03307e-005 2.48899e-006 1.98785e-016 -3.18055e-015 2.18663e-015 -1.50298e-006 -2.82586e-007 6.74985e-007 0.0189742 -0.00118896 -5.97706e-005 -4.57205e-015 0 3.97569e-016 -1.50298e-006 -2.82586e-007 6.74985e-007 0.0122442 -0.00323883 -0.000674546 -7.95139e-016 -3.18055e-015 7.95139e-016 -1.50298e-006 -2.82586e-007 6.74985e-007 7.04096e-008 2.29286e-006 3.93347e-007 4.96962e-015 0 -1.98785e-016 -9.42416 3.57433 -13.0598 5.14256 5.0455e-006 -1.01735 -11.6323 4.96377 10.8201 -1.03534e-006 -7.27838e-007 -1.79189e-007 6.49943 14.2264 -0.191596 -5.47171 1.53125 0.231465 -14.8248 -2.3799 55.2856 -7.72995e-007 -6.76688e-008 -5.5585e-007 
-18.4246 69.4938 -52.8384 0 0 -66.0085 0.850187 -0.691615 1.45663 1.71786 -1.36132 2.92367 1.71787 -1.36132 2.92369 -5.54722 25.1751 16.4318 3.10523 8.4391 12.6524 -17.9434 -1.49842 1.78699 -44.9342 -8.3454 -1.462 -8.56685 41.4535 -26.0611 0.79393 -6.47045 -3.46721 3.18055e-015 1.59028e-015 3.57812e-015 6.36111e-015 7.95139e-016 7.95139e-016 3.18055e-015 2.38542e-015 1.19271e-015 3.18055e-015 1.59028e-015 3.57812e-015 -0.0146218 -8.60254e-005 2.01613e-006 3.18055e-015 1.19271e-015 -0 3.18055e-015 1.59028e-015 3.57812e-015 -0.0187647 -0.0011753 6.09391e-005 -1.43452e-031 -1.59028e-015 -5.1684e-015 3.18055e-015 1.59028e-015 3.57812e-015 -0.0122674 -0.00324827 0.000679197 3.07941e-007 1.5265e-006 -1.16264e-006 3.18055e-015 1.59028e-015 3.57812e-015 6.36111e-015 7.95139e-016 7.95139e-016 3.18055e-015 2.38542e-015 1.19271e-015 22.4966 15.864 7.24285 29.6151 49.5682 8.15778 -4.00842 -9.3193 20.9355 -0.176656 -33.9908 -5.37108 -1.98785e-016 3.18055e-015 -3.97569e-016 1.78906e-015 0 -2.38542e-015 1.98785e-015 3.18055e-015 -9.93923e-016 -1.98785e-016 3.18055e-015 -3.97569e-016 0.0149838 -9.25403e-005 1.69958e-006 -7.95139e-016 0 -3.97569e-016 -1.98785e-016 3.18055e-015 -3.97569e-016 0.0190126 -0.00118971 -5.8435e-005 -3.97569e-016 3.18055e-015 -3.97569e-016 -1.98785e-016 3.18055e-015 -3.97569e-016 0.0123708 -0.00327505 -0.000681249 -3.77691e-015 3.18055e-015 1.78906e-015 -1.98785e-016 3.18055e-015 -3.97569e-016 1.78906e-015 0 -2.38542e-015 1.98785e-015 3.18055e-015 -9.93923e-016 -9.331 3.61215 -13.061 5.14256 -0.0440658 -1.00914 -11.6904 4.7827 10.793 6.90334e-007 4.85225e-007 1.18475e-007 6.59645 14.2395 -0.218452 -5.47174 1.54774 0.228152 -14.8949 -2.42048 55.2858 -5.5567e-007 9.61331e-009 7.73125e-007 
-18.503 69.4665 -52.945 0 0 -66.0085 0.875212 -0.690505 1.37395 1.76692 -1.35974 2.75861 1.76692 -1.35974 2.75857 -5.54371 25.0739 16.4256 3.10899 8.34811 12.6631 -17.9433 -1.49844 1.78702 -44.8096 -8.34765 -1.46585 -8.56685 41.4534 -26.0611 0.793927 -6.47045 -3.4672 -6.36111e-015 -3.18055e-015 -4.57205e-015 -6.36111e-015 -1.59028e-015 -5.1684e-015 -3.18055e-015 0 5.96354e-016 -6.36111e-015 -3.18055e-015 -4.57205e-015 -0.0145721 -8.48779e-005 -9.51787e-008 -6.36111e-015 1.59028e-015 -1.98785e-015 -6.36111e-015 -3.18055e-015 -4.57205e-015 -0.0187448 -0.00117578 6.16581e-005 2.97939e-031 3.18055e-015 -5.36719e-015 -6.36111e-015 -3.18055e-015 -4.57205e-015 -0.0122944 -0.00324967 0.000671623 -1.60004e-031 -1.59028e-015 -5.76476e-015 -6.36111e-015 -3.18055e-015 -4.57205e-015 -6.36111e-015 -1.59028e-015 -5.1684e-015 -3.18055e-015 0 5.96354e-016 22.4258 15.8572 7.1898 29.6151 49.5682 8.15782 -4.0084 -9.3193 20.9355 -0.176675 -33.9908 -5.37109 2.66178e-006 -8.75934e-007 8.13511e-007 6.62695e-007 -3.91239e-007 2.28792e-006 6.62695e-007 -3.91239e-007 2.28792e-006 2.66178e-006 -8.75934e-007 8.13511e-007 0.01496 -8.93966e-005 3.58973e-006 6.62688e-007 -3.9094e-007 2.28797e-006 2.66178e-006 -8.75934e-007 8.13511e-007 0.0189727 -0.0011877 -5.79432e-005 6.62707e-007 -3.90859e-007 2.28798e-006 2.66178e-006 -8.75934e-007 8.13511e-007 0.0122891 -0.00325393 -0.000674849 6.62755e-007 -3.90987e-007 2.28794e-006 2.66178e-006 -8.75934e-007 8.13511e-007 6.62695e-007 -3.91239e-007 2.28792e-006 6.62695e-007 -3.91239e-007 2.28792e-006 -9.25656 3.56929 -13.064 5.14257 0.0788221 -1.01403 -11.7465 4.51743 10.757 4.66785e-007 -2.75704e-006 9.29627e-006 6.6935 14.2554 -0.245455 -5.47176 1.55823 0.225046 -14.965 -2.45804 55.2864 -2.86879e-007 -3.37094e-006 4.91986e-007 
-18.5813 69.4393 -53.0515 0 0 -66.0085 0.900253 -0.689494 1.29127 1.81601 -1.35844 2.59349 1.81601 -1.35844 2.59348 -5.54013 24.9722 16.4195 3.11274 8.25713 12.6738 -17.9433 -1.49846 1.78703 -44.6849 -8.3499 -1.46974 -8.56687 41.4534 -26.0611 0.793926 -6.47045 -3.46722 3.25122e-007 1.62755e-006 -1.16719e-006 -6.36111e-015 -7.95139e-016 -7.35503e-015 4.68978e-032 7.95139e-016 -3.37934e-015 3.25122e-007 1.62755e-006 -1.16719e-006 -0.0146179 -8.77922e-005 -7.95948e-006 -3.18055e-015 2.38542e-015 2.98177e-015 3.25122e-007 1.62755e-006 -1.16719e-006 -0.0187934 -0.00118406 6.25708e-005 -1.27222e-014 3.18055e-015 5.1684e-015 3.25122e-007 1.62755e-006 -1.16719e-006 -0.0122527 -0.00324225 0.000669939 -1.9035e-031 2.38542e-015 4.57205e-015 3.25122e-007 1.62755e-006 -1.16719e-006 -6.36111e-015 -7.95139e-016 -7.35503e-015 4.68978e-032 7.95139e-016 -3.37934e-015 22.355 15.8504 7.13672 29.6151 49.5682 8.15783 -4.00842 -9.3193 20.9355 -0.176657 -33.9908 -5.37108 -9.93923e-016 -3.18055e-015 5.1684e-015 -6.72094e-007 3.90162e-007 -2.2854e-006 8.74653e-015 0 2.78299e-015 -9.93923e-016 -3.18055e-015 5.1684e-015 0.0150777 -9.04961e-005 1.78152e-006 -4.57205e-015 6.36111e-015 3.18055e-015 -9.93923e-016 -3.18055e-015 5.1684e-015 0.0190691 -0.00119481 -5.89831e-005 0 0 -7.95139e-016 -9.93923e-016 -3.18055e-015 5.1684e-015 0.0122593 -0.00324748 -0.000676208 5.76476e-015 9.54166e-015 -7.95139e-016 -9.93923e-016 -3.18055e-015 5.1684e-015 -6.72094e-007 3.90162e-007 -2.2854e-006 8.74653e-015 0 2.78299e-015 -9.16136 3.61555 -13.0658 5.14255 0.017078 -1.00439 -11.805 4.34532 10.7304 2.01048e-007 -8.89315e-007 9.52268e-006 6.79061 14.2847 -0.27303 -5.47172 1.54179 0.222973 -15.0349 -2.482 55.2887 4.87862e-007 7.71889e-009 -3.52969e-007 
